M48
; DRILL file {KiCad (6.0.10)} date Fri Jan 27 21:23:11 2023
; FORMAT={-:-/ absolute / inch / decimal}
; #@! TF.CreationDate,2023-01-27T21:23:11+07:00
; #@! TF.GenerationSoftware,Kicad,Pcbnew,(6.0.10)
; #@! TF.FileFunction,NonPlated,1,2,NPTH
FMAT,2
INCH
; #@! TA.AperFunction,NonPlated,NPTH,ComponentDrill
T1C0.0472
; #@! TA.AperFunction,NonPlated,NPTH,ComponentDrill
T2C0.0669
; #@! TA.AperFunction,NonPlated,NPTH,ComponentDrill
T3C0.0670
; #@! TA.AperFunction,NonPlated,NPTH,ComponentDrill
T4C0.1181
; #@! TA.AperFunction,NonPlated,NPTH,ComponentDrill
T5C0.1570
; #@! TA.AperFunction,NonPlated,NPTH,ComponentDrill
T6C0.1575
%
G90
G05
T1
X8.1406Y-1.975
X8.1406Y-2.2506
X8.2094Y-1.975
X8.2094Y-2.2506
T2
X3.4Y-2.625
X3.4Y-3.375
X3.4Y-4.125
X3.4Y-4.875
X3.5Y-5.625
X3.8Y-2.625
X3.8Y-3.375
X3.8Y-4.125
X3.8Y-4.875
X3.9Y-5.625
X4.25Y-2.625
X4.25Y-3.375
X4.25Y-4.125
X4.25Y-4.875
X4.25Y-5.625
X4.65Y-2.625
X4.65Y-3.375
X4.65Y-4.125
X4.65Y-4.875
X4.65Y-5.625
X5.0Y-2.45
X5.0Y-3.2
X5.0Y-3.95
X5.0Y-4.7
X5.0Y-5.45
X5.4Y-2.45
X5.4Y-3.2
X5.4Y-3.95
X5.4Y-4.7
X5.4Y-5.45
X5.75Y-3.85
X5.75Y-4.6
X5.75Y-5.35
X6.15Y-3.85
X6.15Y-4.6
X6.15Y-5.35
X6.5Y-2.45
X6.5Y-3.2
X6.5Y-3.95
X6.5Y-4.7
X6.7568Y-5.5232
X6.9Y-2.45
X6.9Y-3.2
X6.9Y-3.95
X6.9Y-4.7
X7.1432Y-5.6268
X7.25Y-2.525
X7.25Y-3.275
X7.25Y-4.025
X7.25Y-4.775
X7.65Y-2.525
X7.65Y-3.275
X7.65Y-4.025
X7.65Y-4.775
X7.775Y-6.0232
X7.975Y-5.6768
X8.0Y-2.9
X8.1768Y-4.925
X8.2Y-3.65
X8.2Y-4.05
X8.4Y-2.9
X8.425Y-6.3982
X8.5232Y-5.125
X8.625Y-6.0518
X8.8268Y-5.3
X9.1732Y-5.5
T3
X5.75Y-2.35
X5.75Y-3.1
X6.15Y-2.35
X6.15Y-3.1
T4
X3.45Y-2.525
X3.45Y-3.275
X3.45Y-4.025
X3.45Y-4.775
X3.5Y-2.425
X3.5Y-3.175
X3.5Y-3.925
X3.5Y-4.675
X3.55Y-5.525
X3.6Y-5.425
X3.7Y-2.425
X3.7Y-3.175
X3.7Y-3.925
X3.7Y-4.675
X3.75Y-2.525
X3.75Y-3.275
X3.75Y-4.025
X3.75Y-4.775
X3.8Y-5.425
X3.85Y-5.525
X4.3Y-2.525
X4.3Y-3.275
X4.3Y-4.025
X4.3Y-4.775
X4.3Y-5.525
X4.35Y-2.425
X4.35Y-3.175
X4.35Y-3.925
X4.35Y-4.675
X4.35Y-5.425
X4.55Y-2.425
X4.55Y-3.175
X4.55Y-3.925
X4.55Y-4.675
X4.55Y-5.425
X4.6Y-2.525
X4.6Y-3.275
X4.6Y-4.025
X4.6Y-4.775
X4.6Y-5.525
X5.05Y-2.35
X5.05Y-3.1
X5.05Y-3.85
X5.05Y-4.6
X5.05Y-5.35
X5.1Y-2.25
X5.1Y-3.0
X5.1Y-3.75
X5.1Y-4.5
X5.1Y-5.25
X5.3Y-2.25
X5.3Y-3.0
X5.3Y-3.75
X5.3Y-4.5
X5.3Y-5.25
X5.35Y-2.35
X5.35Y-3.1
X5.35Y-3.85
X5.35Y-4.6
X5.35Y-5.35
X5.8Y-3.75
X5.8Y-4.5
X5.8Y-5.25
X5.85Y-3.65
X5.85Y-4.4
X5.85Y-5.15
X6.05Y-3.65
X6.05Y-4.4
X6.05Y-5.15
X6.1Y-3.75
X6.1Y-4.5
X6.1Y-5.25
X6.55Y-2.35
X6.55Y-3.1
X6.55Y-3.85
X6.55Y-4.6
X6.6Y-2.25
X6.6Y-3.0
X6.6Y-3.75
X6.6Y-4.5
X6.8Y-2.25
X6.8Y-3.0
X6.8Y-3.75
X6.8Y-4.5
X6.831Y-5.4396
X6.85Y-2.35
X6.85Y-3.1
X6.85Y-3.85
X6.85Y-4.6
X6.9052Y-5.3559
X7.0984Y-5.4077
X7.1208Y-5.5172
X7.3Y-2.425
X7.3Y-3.175
X7.3Y-3.925
X7.3Y-4.675
X7.35Y-2.325
X7.35Y-3.075
X7.35Y-3.825
X7.35Y-4.575
X7.55Y-2.325
X7.55Y-3.075
X7.55Y-3.825
X7.55Y-4.575
X7.6Y-2.425
X7.6Y-3.175
X7.6Y-3.925
X7.6Y-4.675
X7.8866Y-6.0299
X7.9982Y-6.0366
X8.0366Y-5.7701
X8.05Y-2.8
X8.0982Y-5.8634
X8.1Y-2.7
X8.2701Y-4.8634
X8.3Y-2.7
X8.3Y-3.7
X8.3Y-4.0
X8.35Y-2.8
X8.3634Y-4.8018
X8.4Y-3.75
X8.4Y-3.95
X8.5299Y-5.0134
X8.5366Y-4.9018
X8.5366Y-6.4049
X8.6482Y-6.4116
X8.6866Y-6.1451
X8.7482Y-6.2384
X8.9201Y-5.2384
X9.0134Y-5.1768
X9.1799Y-5.3884
X9.1866Y-5.2768
T5
X5.95Y-2.35
X5.95Y-3.1
T6
X3.6Y-2.625
X3.6Y-3.375
X3.6Y-4.125
X3.6Y-4.875
X3.7Y-5.625
X4.45Y-2.625
X4.45Y-3.375
X4.45Y-4.125
X4.45Y-4.875
X4.45Y-5.625
X5.2Y-2.45
X5.2Y-3.2
X5.2Y-3.95
X5.2Y-4.7
X5.2Y-5.45
X5.95Y-3.85
X5.95Y-4.6
X5.95Y-5.35
X6.7Y-2.45
X6.7Y-3.2
X6.7Y-3.95
X6.7Y-4.7
X6.95Y-5.575
X7.45Y-2.525
X7.45Y-3.275
X7.45Y-4.025
X7.45Y-4.775
X7.875Y-5.85
X8.2Y-2.9
X8.2Y-3.85
X8.35Y-5.025
X8.525Y-6.225
X9.0Y-5.4
T0
M30
