G04 #@! TF.GenerationSoftware,KiCad,Pcbnew,(6.0.10)*
G04 #@! TF.CreationDate,2023-01-27T21:23:08+07:00*
G04 #@! TF.ProjectId,redox_rev1,7265646f-785f-4726-9576-312e6b696361,1.0*
G04 #@! TF.SameCoordinates,Original*
G04 #@! TF.FileFunction,Soldermask,Bot*
G04 #@! TF.FilePolarity,Negative*
%FSLAX46Y46*%
G04 Gerber Fmt 4.6, Leading zero omitted, Abs format (unit mm)*
G04 Created by KiCad (PCBNEW (6.0.10)) date 2023-01-27 21:23:08*
%MOMM*%
%LPD*%
G01*
G04 APERTURE LIST*
G04 Aperture macros list*
%AMRoundRect*
0 Rectangle with rounded corners*
0 $1 Rounding radius*
0 $2 $3 $4 $5 $6 $7 $8 $9 X,Y pos of 4 corners*
0 Add a 4 corners polygon primitive as box body*
4,1,4,$2,$3,$4,$5,$6,$7,$8,$9,$2,$3,0*
0 Add four circle primitives for the rounded corners*
1,1,$1+$1,$2,$3*
1,1,$1+$1,$4,$5*
1,1,$1+$1,$6,$7*
1,1,$1+$1,$8,$9*
0 Add four rect primitives between the rounded corners*
20,1,$1+$1,$2,$3,$4,$5,0*
20,1,$1+$1,$4,$5,$6,$7,0*
20,1,$1+$1,$6,$7,$8,$9,0*
20,1,$1+$1,$8,$9,$2,$3,0*%
%AMHorizOval*
0 Thick line with rounded ends*
0 $1 width*
0 $2 $3 position (X,Y) of the first rounded end (center of the circle)*
0 $4 $5 position (X,Y) of the second rounded end (center of the circle)*
0 Add line between two ends*
20,1,$1,$2,$3,$4,$5,0*
0 Add two circle primitives to create the rounded ends*
1,1,$1,$2,$3*
1,1,$1,$4,$5*%
%AMRotRect*
0 Rectangle, with rotation*
0 The origin of the aperture is its center*
0 $1 length*
0 $2 width*
0 $3 Rotation angle, in degrees counterclockwise*
0 Add horizontal line*
21,1,$1,$2,0,0,$3*%
%AMFreePoly0*
4,1,24,2.113450,1.244429,2.127735,1.241603,2.727735,0.841603,2.730600,0.837325,2.735355,0.835355,2.740927,0.821903,2.749028,0.809806,2.748029,0.804757,2.750000,0.800000,2.750000,-1.200000,2.735355,-1.235355,2.700000,-1.250000,0.300000,-1.250000,0.264645,-1.235355,0.250000,-1.200000,0.250000,-0.750000,-0.350000,-0.750000,-0.350000,0.750000,0.250000,0.750000,0.250000,1.200000,
0.264645,1.235355,0.300000,1.250000,2.100000,1.250000,2.113450,1.244429,2.113450,1.244429,$1*%
%AMFreePoly1*
4,1,17,-0.364645,1.235355,-0.350000,1.200000,-0.350000,0.750000,0.350000,0.750000,0.350000,-0.750000,-0.350000,-0.750000,-0.350000,-1.200000,-0.364645,-1.235355,-0.400000,-1.250000,-2.800000,-1.250000,-2.835355,-1.235355,-2.850000,-1.200000,-2.850000,1.200000,-2.835355,1.235355,-2.800000,1.250000,-0.400000,1.250000,-0.364645,1.235355,-0.364645,1.235355,$1*%
G04 Aperture macros list end*
%ADD10R,1.800000X1.500000*%
%ADD11C,1.200000*%
%ADD12O,1.700000X2.500000*%
%ADD13C,4.700000*%
%ADD14RotRect,1.800000X1.500000X240.000000*%
%ADD15R,1.752600X1.752600*%
%ADD16C,1.752600*%
%ADD17RotRect,1.800000X1.500000X330.000000*%
%ADD18C,1.397000*%
%ADD19C,2.000000*%
%ADD20RoundRect,0.250000X-0.625000X0.375000X-0.625000X-0.375000X0.625000X-0.375000X0.625000X0.375000X0*%
%ADD21R,1.524000X1.524000*%
%ADD22R,3.200000X2.000000*%
%ADD23C,3.000000*%
%ADD24C,1.700000*%
%ADD25C,4.000000*%
%ADD26FreePoly0,180.000000*%
%ADD27FreePoly1,180.000000*%
%ADD28FreePoly0,60.000000*%
%ADD29FreePoly1,60.000000*%
%ADD30R,1.143000X0.635000*%
%ADD31HorizOval,2.500000X0.019724X0.289328X-0.019724X-0.289328X0*%
%ADD32HorizOval,2.500000X-0.405453X0.729954X0.405453X-0.729954X0*%
%ADD33HorizOval,2.500000X-0.019724X0.289328X0.019724X-0.289328X0*%
%ADD34HorizOval,2.500000X0.405453X0.729954X-0.405453X-0.729954X0*%
%ADD35FreePoly0,150.000000*%
%ADD36FreePoly1,150.000000*%
%ADD37FreePoly0,90.000000*%
%ADD38FreePoly1,90.000000*%
%ADD39FreePoly0,165.000000*%
%ADD40FreePoly1,165.000000*%
G04 APERTURE END LIST*
D10*
X187530000Y-110490000D03*
X190930000Y-110490000D03*
X168480000Y-89535000D03*
X171880000Y-89535000D03*
X89740000Y-113030000D03*
X93140000Y-113030000D03*
D11*
X206770000Y-57165000D03*
X208520000Y-50165000D03*
X206770000Y-50165000D03*
X208520000Y-57165000D03*
D12*
X210620000Y-58965000D03*
X204670000Y-58965000D03*
X204670000Y-54965000D03*
X210620000Y-54965000D03*
X210620000Y-51965000D03*
X204670000Y-51965000D03*
X208870000Y-60465000D03*
X206420000Y-60465000D03*
D10*
X89740000Y-132080000D03*
X93140000Y-132080000D03*
X89740000Y-74930000D03*
X93140000Y-74930000D03*
X172544000Y-146304000D03*
X175944000Y-146304000D03*
X111330000Y-93980000D03*
X114730000Y-93980000D03*
D13*
X213385400Y-144272000D03*
X211963000Y-113284000D03*
D10*
X130280000Y-70485000D03*
X133680000Y-70485000D03*
X111330000Y-113030000D03*
X114730000Y-113030000D03*
X111330000Y-147320000D03*
X114730000Y-147320000D03*
X89740000Y-93980000D03*
X93140000Y-93980000D03*
X168480000Y-108585000D03*
X171880000Y-108585000D03*
X204245000Y-109220000D03*
X207645000Y-109220000D03*
X187530000Y-91440000D03*
X190930000Y-91440000D03*
X187530000Y-72390000D03*
X190930000Y-72390000D03*
X149430000Y-106045000D03*
X152830000Y-106045000D03*
X149430000Y-86995000D03*
X152830000Y-86995000D03*
X92280000Y-147320000D03*
X95680000Y-147320000D03*
D13*
X228473000Y-67945000D03*
D14*
X196430000Y-144577757D03*
X194730000Y-147522243D03*
D15*
X143510000Y-52120000D03*
D16*
X143510000Y-54660000D03*
X143510000Y-57200000D03*
X143510000Y-59740000D03*
X143510000Y-62280000D03*
X143510000Y-64820000D03*
X143510000Y-67360000D03*
X143510000Y-69900000D03*
X143510000Y-72440000D03*
X143510000Y-74980000D03*
X143510000Y-77520000D03*
X143510000Y-80060000D03*
X158750000Y-80060000D03*
X158750000Y-77520000D03*
X158750000Y-74980000D03*
X158750000Y-72440000D03*
X158750000Y-69900000D03*
X158750000Y-67360000D03*
X158750000Y-64820000D03*
X158750000Y-62280000D03*
X158750000Y-59740000D03*
X158750000Y-57200000D03*
X158750000Y-54660000D03*
X158750000Y-52120000D03*
D10*
X226900000Y-90424000D03*
X230300000Y-90424000D03*
X206580000Y-81915000D03*
X209980000Y-81915000D03*
X130380000Y-127635000D03*
X133780000Y-127635000D03*
D14*
X212940000Y-153467757D03*
X211240000Y-156412243D03*
D10*
X168480000Y-70485000D03*
X171880000Y-70485000D03*
D13*
X85699600Y-53975000D03*
D17*
X222682757Y-143295000D03*
X225627243Y-144995000D03*
D10*
X187530000Y-129540000D03*
X190930000Y-129540000D03*
D18*
X224155000Y-86741000D03*
X226695000Y-86741000D03*
X229235000Y-86741000D03*
X231775000Y-86741000D03*
D17*
X206172757Y-133770000D03*
X209117243Y-135470000D03*
D10*
X130380000Y-145415000D03*
X133780000Y-145415000D03*
X130380000Y-108585000D03*
X133780000Y-108585000D03*
X149430000Y-142890000D03*
X152830000Y-142890000D03*
X130380000Y-89535000D03*
X133780000Y-89535000D03*
X168480000Y-127635000D03*
X171880000Y-127635000D03*
D19*
X118693000Y-53467000D03*
X112193000Y-53467000D03*
D20*
X214884000Y-58036000D03*
X214884000Y-58036000D03*
X214884000Y-60836000D03*
X214884000Y-60836000D03*
D13*
X102870000Y-128905000D03*
D10*
X149430000Y-67945000D03*
X152830000Y-67945000D03*
D21*
X198882000Y-104688000D03*
X198882000Y-107188000D03*
X198882000Y-109788000D03*
D13*
X196215000Y-52044600D03*
D20*
X200660000Y-58036000D03*
X200660000Y-58036000D03*
X200660000Y-60836000D03*
X200660000Y-60836000D03*
D10*
X111662000Y-74930000D03*
X115062000Y-74930000D03*
D19*
X221735000Y-96560000D03*
X221735000Y-101560000D03*
X221735000Y-99060000D03*
D22*
X229235000Y-93460000D03*
X229235000Y-104660000D03*
D19*
X236235000Y-101560000D03*
X236235000Y-96560000D03*
D18*
X162560000Y-71755000D03*
D10*
X111330000Y-132080000D03*
X114730000Y-132080000D03*
X149430000Y-125095000D03*
X152830000Y-125095000D03*
D23*
X87630000Y-83185000D03*
D24*
X96520000Y-85725000D03*
D23*
X93980000Y-80645000D03*
X88900000Y-80645000D03*
D24*
X86360000Y-85725000D03*
D23*
X95250000Y-83184999D03*
D25*
X91440000Y-85725000D03*
D26*
X98640000Y-80625000D03*
D27*
X82940000Y-83225000D03*
D24*
X107950000Y-123825000D03*
D23*
X109220000Y-121285000D03*
X116840000Y-121284999D03*
D25*
X113030000Y-123825000D03*
D23*
X110490000Y-118745000D03*
D24*
X118110000Y-123825000D03*
D23*
X115570000Y-118745000D03*
D26*
X120230000Y-118725000D03*
D27*
X104530000Y-121325000D03*
D23*
X153670000Y-92710000D03*
X148590000Y-92710000D03*
D24*
X156210000Y-97790000D03*
D23*
X154940000Y-95249999D03*
X147320000Y-95250000D03*
D24*
X146050000Y-97790000D03*
D25*
X151130000Y-97790000D03*
D26*
X158330000Y-92690000D03*
D27*
X142630000Y-95290000D03*
D23*
X110490000Y-80645000D03*
X109220000Y-83185000D03*
D24*
X107950000Y-85725000D03*
D23*
X115570000Y-80645000D03*
D24*
X118110000Y-85725000D03*
D25*
X113030000Y-85725000D03*
D23*
X116840000Y-83184999D03*
D26*
X120230000Y-80625000D03*
D27*
X104530000Y-83225000D03*
D25*
X170180000Y-62230000D03*
D24*
X175260000Y-62230000D03*
D23*
X166370000Y-59690000D03*
X173990000Y-59689999D03*
X167640000Y-57150000D03*
X172720000Y-57150000D03*
D24*
X165100000Y-62230000D03*
D26*
X177380000Y-57130000D03*
D27*
X161680000Y-59730000D03*
D23*
X115570000Y-61595000D03*
X116840000Y-64134999D03*
D24*
X107950000Y-66675000D03*
D23*
X110490000Y-61595000D03*
X109220000Y-64135000D03*
D25*
X113030000Y-66675000D03*
D24*
X118110000Y-66675000D03*
D26*
X120230000Y-61575000D03*
D27*
X104530000Y-64175000D03*
D23*
X203154409Y-153329705D03*
D24*
X197485000Y-152989409D03*
D25*
X200025000Y-148590000D03*
D23*
X205694409Y-148930295D03*
X204129705Y-146560443D03*
D24*
X202565000Y-144190591D03*
D23*
X200319705Y-153159557D03*
D28*
X200841730Y-157375383D03*
D29*
X206440064Y-142478784D03*
D24*
X118110000Y-142875000D03*
D23*
X109220000Y-140335000D03*
X110490000Y-137795000D03*
X115570000Y-137795000D03*
D24*
X107950000Y-142875000D03*
D25*
X113030000Y-142875000D03*
D23*
X116840000Y-140334999D03*
D26*
X120230000Y-137775000D03*
D27*
X104530000Y-140375000D03*
D25*
X151130000Y-116840000D03*
D24*
X156210000Y-116840000D03*
D23*
X148590000Y-111760000D03*
D24*
X146050000Y-116840000D03*
D23*
X147320000Y-114300000D03*
X153670000Y-111760000D03*
X154940000Y-114299999D03*
D26*
X158330000Y-111740000D03*
D27*
X142630000Y-114340000D03*
D24*
X156210000Y-135890000D03*
D23*
X148590000Y-130810000D03*
X154940000Y-133349999D03*
X147320000Y-133350000D03*
D25*
X151130000Y-135890000D03*
D23*
X153670000Y-130810000D03*
D24*
X146050000Y-135890000D03*
D26*
X158330000Y-130790000D03*
D27*
X142630000Y-133390000D03*
D30*
X226695000Y-78874620D03*
X226695000Y-79875380D03*
D23*
X193040000Y-80644999D03*
D24*
X184150000Y-83185000D03*
D23*
X185420000Y-80645000D03*
X191770000Y-78105000D03*
X186690000Y-78105000D03*
D25*
X189230000Y-83185000D03*
D24*
X194310000Y-83185000D03*
D26*
X196430000Y-78085000D03*
D27*
X180730000Y-80685000D03*
D31*
X153650000Y-73950000D03*
D32*
X154535000Y-75470000D03*
D33*
X148610000Y-73950000D03*
D34*
X147725000Y-75470000D03*
D25*
X91440000Y-123825000D03*
D24*
X96520000Y-123825000D03*
X86360000Y-123825000D03*
D23*
X93980000Y-118745000D03*
X88900000Y-118745000D03*
X87630000Y-121285000D03*
X95250000Y-121284999D03*
D26*
X98640000Y-118725000D03*
D27*
X82940000Y-121325000D03*
D23*
X134620000Y-76200000D03*
D25*
X132080000Y-81280000D03*
D24*
X137160000Y-81280000D03*
D23*
X135890000Y-78739999D03*
X128270000Y-78740000D03*
X129540000Y-76200000D03*
D24*
X127000000Y-81280000D03*
D26*
X139280000Y-76180000D03*
D27*
X123580000Y-78780000D03*
D24*
X194310000Y-64135000D03*
D23*
X185420000Y-61595000D03*
X186690000Y-59055000D03*
D25*
X189230000Y-64135000D03*
D24*
X184150000Y-64135000D03*
D23*
X191770000Y-59055000D03*
X193040000Y-61594999D03*
D26*
X196430000Y-59035000D03*
D27*
X180730000Y-61635000D03*
D24*
X184150000Y-121285000D03*
X194310000Y-121285000D03*
D23*
X191770000Y-116205000D03*
X185420000Y-118745000D03*
X186690000Y-116205000D03*
X193040000Y-118744999D03*
D25*
X189230000Y-121285000D03*
D26*
X196430000Y-116185000D03*
D27*
X180730000Y-118785000D03*
D24*
X224200591Y-134620000D03*
D25*
X228600000Y-137160000D03*
D23*
X226570443Y-133055295D03*
X228940295Y-131490591D03*
D24*
X232999409Y-139700000D03*
D23*
X233339705Y-134030591D03*
X233169557Y-136865295D03*
D35*
X237385383Y-136343270D03*
D36*
X222488784Y-130744936D03*
D23*
X216829705Y-124505591D03*
D24*
X216489409Y-130175000D03*
X207690591Y-125095000D03*
D23*
X210060443Y-123530295D03*
X212430295Y-121965591D03*
D25*
X212090000Y-127635000D03*
D23*
X216659557Y-127340295D03*
D35*
X220875383Y-126818270D03*
D36*
X205978784Y-121219936D03*
D23*
X173990000Y-97789999D03*
X167640000Y-95250000D03*
D24*
X165100000Y-100330000D03*
D23*
X166370000Y-97790000D03*
D24*
X175260000Y-100330000D03*
D23*
X172720000Y-95250000D03*
D25*
X170180000Y-100330000D03*
D26*
X177380000Y-95230000D03*
D27*
X161680000Y-97830000D03*
D23*
X88900000Y-61595000D03*
X93980000Y-61595000D03*
D24*
X86360000Y-66675000D03*
D23*
X95250000Y-64134999D03*
X87630000Y-64135000D03*
D25*
X91440000Y-66675000D03*
D24*
X96520000Y-66675000D03*
D26*
X98640000Y-61575000D03*
D27*
X82940000Y-64175000D03*
D24*
X137160000Y-62230000D03*
D25*
X132080000Y-62230000D03*
D23*
X129540000Y-57150000D03*
X134620000Y-57150000D03*
D24*
X127000000Y-62230000D03*
D23*
X135890000Y-59689999D03*
X128270000Y-59690000D03*
D26*
X139280000Y-57130000D03*
D27*
X123580000Y-59730000D03*
D30*
X229235000Y-78874620D03*
X229235000Y-79875380D03*
D31*
X153650000Y-54900000D03*
D32*
X154535000Y-56420000D03*
D33*
X148610000Y-54900000D03*
D34*
X147725000Y-56420000D03*
D23*
X193040000Y-99694999D03*
X191770000Y-97155000D03*
X186690000Y-97155000D03*
D25*
X189230000Y-102235000D03*
D24*
X194310000Y-102235000D03*
X184150000Y-102235000D03*
D23*
X185420000Y-99695000D03*
D26*
X196430000Y-97135000D03*
D27*
X180730000Y-99735000D03*
D23*
X167640000Y-76200000D03*
X166370000Y-78740000D03*
D25*
X170180000Y-81280000D03*
D23*
X173990000Y-78739999D03*
D24*
X175260000Y-81280000D03*
D23*
X172720000Y-76200000D03*
D24*
X165100000Y-81280000D03*
D26*
X177380000Y-76180000D03*
D27*
X161680000Y-78780000D03*
D23*
X166370000Y-116840000D03*
X172720000Y-114300000D03*
D25*
X170180000Y-119380000D03*
D24*
X165100000Y-119380000D03*
D23*
X167640000Y-114300000D03*
X173990000Y-116839999D03*
D24*
X175260000Y-119380000D03*
D26*
X177380000Y-114280000D03*
D27*
X161680000Y-116880000D03*
D23*
X115570000Y-99695000D03*
X110490000Y-99695000D03*
X116840000Y-102234999D03*
D24*
X118110000Y-104775000D03*
D23*
X109220000Y-102235000D03*
D24*
X107950000Y-104775000D03*
D25*
X113030000Y-104775000D03*
D26*
X120230000Y-99675000D03*
D27*
X104530000Y-102275000D03*
D25*
X132080000Y-119380000D03*
D24*
X127000000Y-119380000D03*
D23*
X129540000Y-114300000D03*
D24*
X137160000Y-119380000D03*
D23*
X135890000Y-116839999D03*
X128270000Y-116840000D03*
X134620000Y-114300000D03*
D26*
X139280000Y-114280000D03*
D27*
X123580000Y-116880000D03*
D25*
X208280000Y-97790000D03*
D24*
X208280000Y-92710000D03*
D23*
X213360000Y-100330000D03*
D24*
X208280000Y-102870000D03*
D23*
X210820001Y-101600000D03*
X210820000Y-93980000D03*
X213360000Y-95250000D03*
D37*
X213380000Y-104990000D03*
D38*
X210780000Y-89290000D03*
D23*
X210820000Y-68580000D03*
X212090000Y-71119999D03*
D25*
X208280000Y-73660000D03*
D24*
X203200000Y-73660000D03*
X213360000Y-73660000D03*
D23*
X205740000Y-68580000D03*
X204470000Y-71120000D03*
D26*
X215480000Y-68560000D03*
D27*
X199780000Y-71160000D03*
D24*
X137160000Y-138430000D03*
X127000000Y-138430000D03*
D23*
X135890000Y-135889999D03*
D25*
X132080000Y-138430000D03*
D23*
X134620000Y-133350000D03*
X128270000Y-135890000D03*
X129540000Y-133350000D03*
D26*
X139280000Y-133330000D03*
D27*
X123580000Y-135930000D03*
D25*
X93980000Y-142875000D03*
D23*
X91440000Y-137795000D03*
D24*
X88900000Y-142875000D03*
D23*
X97790000Y-140334999D03*
D24*
X99060000Y-142875000D03*
D23*
X90170000Y-140335000D03*
X96520000Y-137795000D03*
D26*
X101180000Y-137775000D03*
D27*
X85480000Y-140375000D03*
D25*
X91440000Y-104775000D03*
D23*
X88900000Y-99695000D03*
X95250000Y-102234999D03*
D24*
X86360000Y-104775000D03*
X96520000Y-104775000D03*
D23*
X87630000Y-102235000D03*
X93980000Y-99695000D03*
D26*
X98640000Y-99675000D03*
D27*
X82940000Y-102275000D03*
D30*
X224155000Y-78874620D03*
X224155000Y-79875380D03*
D23*
X175391349Y-136040696D03*
X180867578Y-140137648D03*
D24*
X171623097Y-140290199D03*
D25*
X176530000Y-141605000D03*
D23*
X173507223Y-138165448D03*
X180298252Y-137355497D03*
D24*
X181436903Y-142919801D03*
D39*
X184804643Y-138542275D03*
D40*
X168966678Y-136990224D03*
D30*
X231775000Y-78874620D03*
X231775000Y-79875380D03*
D23*
X216829705Y-162684557D03*
X219664409Y-162854705D03*
D24*
X213995000Y-162514409D03*
D23*
X222204409Y-158455295D03*
D24*
X219075000Y-153715591D03*
D25*
X216535000Y-158115000D03*
D23*
X220639705Y-156085443D03*
D28*
X217351730Y-166900383D03*
D29*
X222950064Y-152003784D03*
D23*
X134620000Y-95250000D03*
D24*
X137160000Y-100330000D03*
D23*
X129540000Y-95250000D03*
X128270000Y-97790000D03*
D25*
X132080000Y-100330000D03*
D24*
X127000000Y-100330000D03*
D23*
X135890000Y-97789999D03*
D26*
X139280000Y-95230000D03*
D27*
X123580000Y-97830000D03*
M02*
