G04 #@! TF.GenerationSoftware,KiCad,Pcbnew,(6.0.10)*
G04 #@! TF.CreationDate,2023-01-27T21:23:07+07:00*
G04 #@! TF.ProjectId,redox_rev1,7265646f-785f-4726-9576-312e6b696361,1.0*
G04 #@! TF.SameCoordinates,Original*
G04 #@! TF.FileFunction,Paste,Top*
G04 #@! TF.FilePolarity,Positive*
%FSLAX46Y46*%
G04 Gerber Fmt 4.6, Leading zero omitted, Abs format (unit mm)*
G04 Created by KiCad (PCBNEW (6.0.10)) date 2023-01-27 21:23:07*
%MOMM*%
%LPD*%
G01*
G04 APERTURE LIST*
G04 Aperture macros list*
%AMFreePoly0*
4,1,17,2.735355,1.235355,2.750000,1.200000,2.750000,-1.200000,2.735355,-1.235355,2.700000,-1.250000,0.300000,-1.250000,0.264645,-1.235355,0.250000,-1.200000,0.250000,-0.750000,-0.350000,-0.750000,-0.350000,0.750000,0.250000,0.750000,0.250000,1.200000,0.264645,1.235355,0.300000,1.250000,2.700000,1.250000,2.735355,1.235355,2.735355,1.235355,$1*%
%AMFreePoly1*
4,1,24,-0.364645,1.235355,-0.350000,1.200000,-0.350000,0.750000,0.350000,0.750000,0.350000,-0.750000,-0.350000,-0.750000,-0.350000,-1.200000,-0.364645,-1.235355,-0.400000,-1.250000,-2.800000,-1.250000,-2.835355,-1.235355,-2.850000,-1.200000,-2.850000,0.800000,-2.848878,0.802708,-2.849694,0.805522,-2.841697,0.820044,-2.835355,0.835355,-2.832649,0.836476,-2.831235,0.839043,-2.331235,1.239043,
-2.315318,1.243655,-2.300000,1.250000,-0.400000,1.250000,-0.364645,1.235355,-0.364645,1.235355,$1*%
G04 Aperture macros list end*
%ADD10R,0.635000X1.143000*%
%ADD11R,1.143000X0.635000*%
%ADD12FreePoly0,180.000000*%
%ADD13FreePoly1,180.000000*%
%ADD14FreePoly0,60.000000*%
%ADD15FreePoly1,60.000000*%
%ADD16FreePoly0,150.000000*%
%ADD17FreePoly1,150.000000*%
%ADD18FreePoly0,90.000000*%
%ADD19FreePoly1,90.000000*%
%ADD20FreePoly0,165.000000*%
%ADD21FreePoly1,165.000000*%
G04 APERTURE END LIST*
D10*
X201429620Y-54610000D03*
X202430380Y-54610000D03*
D11*
X231775000Y-78874620D03*
X231775000Y-79875380D03*
D10*
X202430380Y-52705000D03*
X201429620Y-52705000D03*
D11*
X226695000Y-78874620D03*
X226695000Y-79875380D03*
X224155000Y-78874620D03*
X224155000Y-79875380D03*
X229235000Y-78874620D03*
X229235000Y-79875380D03*
D10*
X201429620Y-50800000D03*
X202430380Y-50800000D03*
D12*
X99940000Y-83225000D03*
D13*
X84240000Y-80625000D03*
D12*
X121530000Y-121325000D03*
D13*
X105830000Y-118725000D03*
D12*
X159630000Y-95290000D03*
D13*
X143930000Y-92690000D03*
D12*
X121530000Y-83225000D03*
D13*
X105830000Y-80625000D03*
D12*
X178680000Y-59730000D03*
D13*
X162980000Y-57130000D03*
D12*
X121530000Y-64175000D03*
D13*
X105830000Y-61575000D03*
D14*
X197940064Y-157201216D03*
D15*
X208041730Y-144904617D03*
D12*
X121530000Y-140375000D03*
D13*
X105830000Y-137775000D03*
D12*
X159630000Y-114340000D03*
D13*
X143930000Y-111740000D03*
D12*
X159630000Y-133390000D03*
D13*
X143930000Y-130790000D03*
D12*
X197730000Y-80685000D03*
D13*
X182030000Y-78085000D03*
D12*
X99940000Y-121325000D03*
D13*
X84240000Y-118725000D03*
D12*
X140580000Y-78780000D03*
D13*
X124880000Y-76180000D03*
D12*
X197730000Y-61635000D03*
D13*
X182030000Y-59035000D03*
D12*
X197730000Y-118785000D03*
D13*
X182030000Y-116185000D03*
D16*
X237211216Y-139244936D03*
D17*
X224914617Y-129143270D03*
D16*
X220701216Y-129719936D03*
D17*
X208404617Y-119618270D03*
D12*
X178680000Y-97830000D03*
D13*
X162980000Y-95230000D03*
D12*
X99940000Y-64175000D03*
D13*
X84240000Y-61575000D03*
D12*
X140580000Y-59730000D03*
D13*
X124880000Y-57130000D03*
D12*
X197730000Y-99735000D03*
D13*
X182030000Y-97135000D03*
D12*
X178680000Y-78780000D03*
D13*
X162980000Y-76180000D03*
D12*
X178680000Y-116880000D03*
D13*
X162980000Y-114280000D03*
D12*
X121530000Y-102275000D03*
D13*
X105830000Y-99675000D03*
D12*
X140580000Y-116880000D03*
D13*
X124880000Y-114280000D03*
D18*
X210780000Y-106290000D03*
D19*
X213380000Y-90590000D03*
D12*
X216780000Y-71160000D03*
D13*
X201080000Y-68560000D03*
D12*
X140580000Y-135930000D03*
D13*
X124880000Y-133330000D03*
D12*
X102480000Y-140375000D03*
D13*
X86780000Y-137775000D03*
D12*
X99940000Y-102275000D03*
D13*
X84240000Y-99675000D03*
D20*
X185387417Y-141390147D03*
D21*
X170895311Y-134815281D03*
D14*
X214450064Y-166726216D03*
D15*
X224551730Y-154429617D03*
D12*
X140580000Y-97830000D03*
D13*
X124880000Y-95230000D03*
M02*
