M48
; DRILL file {KiCad (6.0.10)} date Fri Jan 27 21:23:11 2023
; FORMAT={-:-/ absolute / inch / decimal}
; #@! TF.CreationDate,2023-01-27T21:23:11+07:00
; #@! TF.GenerationSoftware,Kicad,Pcbnew,(6.0.10)
; #@! TF.FileFunction,Plated,1,2,PTH
FMAT,2
INCH
; #@! TA.AperFunction,Plated,PTH,ViaDrill
T1C0.0157
; #@! TA.AperFunction,Plated,PTH,ComponentDrill
T2C0.0157
; #@! TA.AperFunction,Plated,PTH,ComponentDrill
T3C0.0320
; #@! TA.AperFunction,Plated,PTH,ComponentDrill
T4C0.0394
; #@! TA.AperFunction,Plated,PTH,ComponentDrill
T5C0.0430
; #@! TA.AperFunction,Plated,PTH,ComponentDrill
T6C0.0512
; #@! TA.AperFunction,Plated,PTH,ComponentDrill
T7C0.0591
; #@! TA.AperFunction,Plated,PTH,ComponentDrill
T8C0.1614
%
G90
G05
T1
X3.22Y-4.72
X3.24Y-3.94
X3.26Y-2.46
X3.28Y-3.18
X3.29Y-2.74
X3.36Y-5.44
X3.475Y-5.775
X3.755Y-3.53
X3.775Y-2.8
X3.805Y-4.29
X3.9Y-5.225
X3.98Y-2.44
X3.98Y-3.18
X3.98Y-3.98
X3.98Y-4.72
X4.04Y-5.44
X4.045Y-4.23
X4.09Y-2.95
X4.09Y-3.68
X4.09Y-3.72
X4.09Y-4.42
X4.12Y-2.46
X4.12Y-3.22
X4.12Y-3.96
X4.12Y-4.7
X4.12Y-5.44
X4.14Y-5.27
X4.15Y-2.77
X4.15Y-2.95
X4.15Y-3.68
X4.15Y-3.72
X4.15Y-4.42
X4.24Y-5.26
X4.275Y-3.78
X4.34Y-4.25
X4.37Y-3.52
X4.6Y-5.02
X4.7Y-2.835
X4.76Y-3.45
X4.78Y-2.44
X4.78Y-3.18
X4.78Y-3.94
X4.78Y-4.68
X4.78Y-5.44
X4.82Y-4.26
X4.82Y-5.07
X4.83Y-2.82
X4.83Y-2.86
X4.835Y-3.585
X4.86Y-2.26
X4.86Y-3.02
X4.86Y-3.8
X4.86Y-4.54
X4.86Y-5.26
X4.89Y-3.45
X4.9Y-2.82
X4.9Y-2.86
X4.9Y-5.04
X4.955Y-5.57
X5.015Y-4.1
X5.03Y-3.33
X5.385Y-4.885
X5.455Y-5.14
X5.48Y-2.11
X5.51Y-3.45
X5.52Y-2.26
X5.52Y-3.02
X5.52Y-3.76
X5.52Y-4.5
X5.52Y-5.26
X5.56Y-4.24
X5.58Y-5.73
X5.59Y-4.96
X5.62Y-4.37
X5.62Y-4.44
X5.62Y-5.2
X5.65Y-3.28
X5.6665Y-3.6492
X5.67Y-4.92
X5.7Y-3.45
X5.715Y-5.47
X5.77Y-2.65
X5.83Y-2.75
X5.945Y-2.11
X5.96Y-3.26
X5.96Y-3.54
X6.07Y-2.47
X6.075Y-3.99
X6.09Y-2.03
X6.09Y-2.07
X6.11Y-1.945
X6.13Y-2.55
X6.13Y-2.59
X6.165Y-2.005
X6.18Y-2.045
X6.2Y-3.48
X6.21Y-3.54
X6.26Y-3.66
X6.28Y-4.4
X6.28Y-5.16
X6.33Y-2.99
X6.33Y-3.47
X6.33Y-3.51
X6.33Y-3.55
X6.33Y-3.59
X6.33Y-3.63
X6.33Y-4.17
X6.33Y-5.01
X6.36Y-3.04
X6.36Y-3.78
X6.36Y-4.54
X6.38Y-2.26
X6.39Y-3.47
X6.39Y-3.51
X6.39Y-3.55
X6.39Y-3.59
X6.39Y-3.63
X6.39Y-4.17
X6.39Y-5.01
X6.41Y-5.37
X6.455Y-4.845
X6.47Y-2.68
X6.505Y-2.115
X6.6277Y-5.3077
X6.64Y-2.88
X6.77Y-4.085
X6.855Y-3.3
X6.89Y-2.62
X6.96Y-3.5
X6.9835Y-2.9992
X6.99Y-2.02
X7.01Y-3.53
X7.02Y-2.26
X7.02Y-2.83
X7.02Y-2.87
X7.03Y-2.91
X7.04Y-3.76
X7.04Y-4.52
X7.09Y-3.54
X7.09Y-3.58
X7.09Y-3.62
X7.09Y-3.66
X7.09Y-3.7
X7.09Y-4.27
X7.09Y-5.14
X7.12Y-2.34
X7.12Y-2.83
X7.12Y-2.91
X7.12Y-3.12
X7.12Y-3.84
X7.12Y-4.62
X7.15Y-3.54
X7.15Y-3.58
X7.15Y-3.62
X7.15Y-3.66
X7.15Y-3.7
X7.15Y-4.27
X7.17Y-5.14
X7.18Y-2.91
X7.185Y-4.355
X7.205Y-2.11
X7.285Y-3.4
X7.3Y-5.195
X7.325Y-2.69
X7.38Y-5.46
X7.39Y-2.92
X7.55Y-4.22
X7.59Y-4.915
X7.69Y-5.415
X7.78Y-2.34
X7.79Y-2.16
X7.8Y-3.08
X7.8Y-3.86
X7.8Y-4.6
X7.86Y-2.72
X7.86Y-2.91
X7.86Y-2.95
X7.87Y-2.03
X7.87Y-3.64
X7.88Y-2.12
X7.88Y-6.28
X7.9Y-3.48
X7.9Y-3.7
X7.93Y-3.5
X7.96Y-3.41
X7.96Y-3.63
X7.96Y-3.7
X7.99Y-3.42
X8.0Y-2.05
X8.0Y-3.63
X8.0Y-3.72
X8.02Y-3.4
X8.1Y-4.68
X8.16Y-5.58
X8.18Y-3.06
X8.36Y-3.5
X8.37Y-3.29
X8.38Y-4.18
X8.43Y-3.005
X8.52Y-2.72
X8.52Y-6.62
X8.525Y-5.855
X8.55Y-3.28
X8.6959Y-4.9928
X8.71Y-5.4
X8.72Y-5.19
X8.78Y-5.08
X8.87Y-5.99
X8.9Y-4.22
X8.94Y-3.02
X8.98Y-3.1
X9.19Y-3.195
X9.24Y-3.14
X9.3459Y-5.3678
T2
X3.5331Y-2.95
X3.5331Y-3.7
X3.5331Y-4.45
X3.5331Y-5.2
X3.6331Y-5.8
X3.6669Y-2.95
X3.6669Y-3.7
X3.6669Y-4.45
X3.6669Y-5.2
X3.7669Y-5.8
X4.3831Y-3.7
X4.3831Y-4.45
X4.3831Y-5.2
X4.3831Y-5.8
X4.3961Y-2.95
X4.5169Y-3.7
X4.5169Y-4.45
X4.5169Y-5.2
X4.5169Y-5.8
X4.53Y-2.95
X5.1291Y-2.775
X5.1331Y-3.525
X5.1331Y-4.275
X5.1331Y-5.025
X5.1331Y-5.725
X5.263Y-2.775
X5.2669Y-3.525
X5.2669Y-4.275
X5.2669Y-5.025
X5.2669Y-5.725
X5.8831Y-2.675
X5.8831Y-3.425
X5.8831Y-4.175
X5.8831Y-4.925
X5.8831Y-5.6256
X6.0169Y-2.675
X6.0169Y-3.425
X6.0169Y-4.175
X6.0169Y-4.925
X6.0169Y-5.6256
X6.6331Y-2.775
X6.6331Y-3.525
X6.6331Y-4.275
X6.6331Y-5.025
X6.7669Y-2.775
X6.7669Y-3.525
X6.7669Y-4.275
X6.7669Y-5.025
X6.7931Y-5.76
X6.9269Y-5.76
X7.3831Y-2.85
X7.3831Y-3.6
X7.3831Y-4.35
X7.3831Y-5.1
X7.5169Y-2.85
X7.5169Y-3.6
X7.5169Y-4.35
X7.5169Y-5.1
X7.6665Y-5.808
X7.7335Y-5.692
X7.9Y-2.2849
X7.9Y-2.3951
X8.0411Y-4.3
X8.117Y-5.2665
X8.1331Y-3.225
X8.175Y-4.3
X8.233Y-5.3335
X8.2669Y-3.225
X8.3165Y-6.158
X8.3835Y-6.042
X8.46Y-2.2849
X8.46Y-2.3951
X8.767Y-5.6415
X8.883Y-5.7085
X8.9331Y-3.56
X9.0669Y-3.56
T3
X6.4Y-2.825
X8.825Y-3.415
X8.925Y-3.415
X9.025Y-3.415
X9.125Y-3.415
T4
X7.83Y-4.1216
X7.83Y-4.22
X7.83Y-4.3224
X8.7297Y-3.8016
X8.7297Y-3.9
X8.7297Y-3.9984
X9.3006Y-3.8016
X9.3006Y-3.9984
T5
X5.65Y-2.052
X5.65Y-2.152
X5.65Y-2.252
X5.65Y-2.352
X5.65Y-2.452
X5.65Y-2.552
X5.65Y-2.652
X5.65Y-2.752
X5.65Y-2.852
X5.65Y-2.952
X5.65Y-3.052
X5.65Y-3.152
X6.25Y-2.052
X6.25Y-2.152
X6.25Y-2.252
X6.25Y-2.352
X6.25Y-2.452
X6.25Y-2.552
X6.25Y-2.652
X6.25Y-2.752
X6.25Y-2.852
X6.25Y-2.952
X6.25Y-3.052
X6.25Y-3.152
T6
X4.417Y-2.105
X4.673Y-2.105
T8
X3.374Y-2.125
X4.05Y-5.075
X7.725Y-2.049
X8.345Y-4.46
X8.401Y-5.68
X8.995Y-2.675
T4
G00X8.0579Y-2.036
M15
G01X8.0579Y-2.0557
M16
G05
G00X8.0579Y-2.1541
M15
G01X8.0579Y-2.1738
M16
G05
G00X8.0579Y-2.3116
M15
G01X8.0579Y-2.3313
M16
G05
G00X8.1268Y-2.3707
M15
G01X8.1268Y-2.3904
M16
G05
G00X8.2232Y-2.3707
M15
G01X8.2232Y-2.3904
M16
G05
G00X8.2921Y-2.036
M15
G01X8.2921Y-2.0557
M16
G05
G00X8.2921Y-2.1541
M15
G01X8.2921Y-2.1738
M16
G05
G00X8.2921Y-2.3116
M15
G01X8.2921Y-2.3313
M16
G05
T7
G00X5.8Y-2.25
M15
G01X5.8319Y-2.1925
M16
G05
G00X5.8Y-3.0
M15
G01X5.8319Y-2.9425
M16
G05
G00X5.8516Y-2.1728
M15
G01X5.85Y-2.15
M16
G05
G00X5.8516Y-2.9228
M15
G01X5.85Y-2.9
M16
G05
G00X6.0484Y-2.1728
M15
G01X6.05Y-2.15
M16
G05
G00X6.0484Y-2.9228
M15
G01X6.05Y-2.9
M16
G05
G00X6.1Y-2.25
M15
G01X6.0681Y-2.1925
M16
G05
G00X6.1Y-3.0
M15
G01X6.0681Y-2.9425
M16
G05
G00X8.9994Y-3.6795
M15
G01X9.0506Y-3.6795
M16
G05
G00X8.9994Y-4.1205
M15
G01X9.0506Y-4.1205
M16
G05
T0
M30
